<svg width="25" height="24" fill="none" xmlns="http://www.w3.org/2000/svg"><path fill-rule="evenodd" clip-rule="evenodd" d="M15.898 11.712a1.425 1.425 0 00-.482-.527l-3.513-2.078a1.29 1.29 0 00-1.327.004 1.34 1.34 0 00-.482.503 1.389 1.389 0 00-.17.683v4.17c0 .36.138.705.385.96a1.3 1.3 0 00.934.398c.232 0 .46-.064.66-.183l3.513-2.078c.2-.12.366-.291.482-.497a1.39 1.39 0 000-1.355zm-4.659 4.038a1.225 1.225 0 01-.875-.376 1.303 1.303 0 01-.364-.907v-4.17a1.31 1.31 0 01.161-.647c.108-.197.265-.36.455-.475.19-.114.405-.175.624-.175h.007-.008c-.22 0-.435.061-.625.175a1.27 1.27 0 00-.454.475 1.31 1.31 0 00-.161.647v4.17c0 .34.13.667.364.907.232.24.548.375.876.376zm3.799-2.93a.499.499 0 01-.017.012l-.006.003a.522.522 0 00.19-.194.545.545 0 00-.19-.728L11.502 9.82a.545.545 0 01-.001 0l3.513 2.093a.525.525 0 01.19.195.546.546 0 01-.166.713zm-3.575 2.044l3.598-2.159a.47.47 0 00-.085-.727l-3.513-2.093a.472.472 0 00-.22-.06.461.461 0 00-.22.06.45.45 0 00-.162.167.47.47 0 00-.06.23v4.185c0 .081.02.16.06.23a.437.437 0 00.602.167z" fill="#fff"/><circle cx="12.997" cy="12" r="11.415" stroke="#fff" stroke-width="1.171"/></svg>