<svg width="19" height="18" fill="none" xmlns="http://www.w3.org/2000/svg"><g clip-path="url(#clip0_1296_129)"><path fill-rule="evenodd" clip-rule="evenodd" d="M7.147 2.714a.44.44 0 00-.076.249v9.662l-.654-.335a2.295 2.295 0 00-1.034-.252 2.35 2.35 0 00-1.346.427c-.4.28-.716.68-.903 1.152a2.696 2.696 0 00-.14 1.494c.095.502.33.96.673 1.319.342.358.776.599 1.245.696.469.098.955.048 1.398-.144a2.47 2.47 0 001.095-.94c.27-.424.416-.923.416-1.436V7.634l9.975-1.602V10.9l-.654-.335a2.296 2.296 0 00-1.034-.252 2.35 2.35 0 00-1.346.428c-.4.28-.716.68-.903 1.151a2.696 2.696 0 00-.14 1.494c.095.502.33.96.673 1.319.342.358.776.599 1.245.697.469.097.955.047 1.398-.145a2.469 2.469 0 001.095-.94c.27-.424.416-.923.416-1.435V1.238a.445.445 0 00-.037-.179.412.412 0 00-.102-.141.364.364 0 00-.138-.079.34.34 0 00-.151-.01L8.411 2.39l-1.017.164h-.001a.366.366 0 00-.246.16zm10.65 2.478L7.82 6.795v-3.5l9.975-1.574v3.471zm-2.021 5.98a1.64 1.64 0 01.985.101c.31.135.573.361.756.647a1.786 1.786 0 01-.208 2.187 1.65 1.65 0 01-2.145.219 1.733 1.733 0 01-.617-.784 1.799 1.799 0 01-.094-.997c.064-.335.221-.644.456-.89.234-.245.535-.414.867-.483zM5.05 12.897a1.64 1.64 0 01.985.101c.31.135.573.361.756.647a1.786 1.786 0 01-.208 2.187 1.65 1.65 0 01-2.145.219 1.733 1.733 0 01-.617-.784 1.798 1.798 0 01-.094-.997c.064-.335.221-.644.455-.89.235-.245.536-.414.868-.483z" fill="#fff"/></g><defs><clipPath id="clip0_1296_129"><path fill="#fff" transform="translate(.997)" d="M0 0h18v18H0z"/></clipPath></defs></svg>